<svg width="1013" height="687" viewBox="0 0 1013 687" fill="none" xmlns="http://www.w3.org/2000/svg">
<g clip-path="url(#clip0_143_315)">
<path d="M205.813 215.958H11.6885C9.69981 215.958 7.79259 215.168 6.38639 213.761C4.98018 212.355 4.19019 210.447 4.19019 208.458C4.19019 206.469 4.98018 204.562 6.38639 203.155C7.79259 201.749 9.69981 200.959 11.6885 200.959H205.813C207.802 200.959 209.709 201.749 211.115 203.155C212.521 204.562 213.311 206.469 213.311 208.458C213.311 210.447 212.521 212.355 211.115 213.761C209.709 215.168 207.802 215.958 205.813 215.958Z" fill="#DEDCD9"/>
<path d="M563.509 15.3553H437.039C436.031 15.3575 435.032 15.1608 434.099 14.7764C433.167 14.392 432.32 13.8274 431.606 13.115C430.892 12.4027 430.326 11.5565 429.939 10.6249C429.553 9.69333 429.354 8.69468 429.354 7.68612V7.68612C429.354 5.64764 430.164 3.69264 431.605 2.25121C433.046 0.809785 435.001 0 437.039 0L563.509 0C564.518 -2.46825e-06 565.516 0.198927 566.447 0.585399C567.379 0.97187 568.225 1.53829 568.937 2.25224C569.649 2.96618 570.214 3.81363 570.598 4.74605C570.983 5.67848 571.179 6.67757 571.177 7.68612V7.68612C571.177 9.72011 570.369 11.6708 568.931 13.109C567.493 14.5473 565.543 15.3553 563.509 15.3553V15.3553Z" fill="#DEDCD9"/>
<path d="M98.1225 272.781H75.8142C69.9491 272.781 65.1945 277.536 65.1945 283.402V304.357C65.1945 310.223 69.9491 314.978 75.8142 314.978H98.1225C103.988 314.978 108.742 310.223 108.742 304.357V283.402C108.742 277.536 103.988 272.781 98.1225 272.781Z" fill="#FF9900"/>
<path d="M747.268 663.976H735.071C731.876 663.976 729.286 666.566 729.286 669.761V681.214C729.286 684.41 731.876 687 735.071 687H747.268C750.463 687 753.053 684.41 753.053 681.214V669.761C753.053 666.566 750.463 663.976 747.268 663.976Z" fill="#DEDCD9"/>
<path d="M965.635 175.831H953.438C950.243 175.831 947.653 178.421 947.653 181.616V193.069C947.653 196.265 950.243 198.855 953.438 198.855H965.635C968.83 198.855 971.42 196.265 971.42 193.069V181.616C971.42 178.421 968.83 175.831 965.635 175.831Z" fill="#FF9900"/>
<path d="M114.29 552.043L52.8104 583.908L70.5214 592.476L48.5354 618.775L65.6865 632.841L86.943 604.591L101.176 619.861L114.29 552.043Z" fill="#FEFEF4"/>
<path d="M328.364 684.574H256.52C255.255 684.574 254.003 684.324 252.835 683.84C251.667 683.355 250.606 682.645 249.712 681.75C248.819 680.855 248.111 679.792 247.628 678.623C247.146 677.454 246.899 676.201 246.901 674.936C246.901 672.383 247.914 669.935 249.717 668.128C251.521 666.321 253.967 665.304 256.52 665.299H328.364C330.917 665.304 333.364 666.321 335.167 668.128C336.97 669.935 337.983 672.383 337.983 674.936V674.936C337.986 676.201 337.738 677.454 337.256 678.623C336.774 679.792 336.065 680.855 335.172 681.75C334.279 682.645 333.217 683.355 332.049 683.84C330.881 684.324 329.629 684.574 328.364 684.574V684.574Z" fill="#DEDCD9"/>
<path d="M789.357 110.151H210.852C204.153 110.151 198.722 115.582 198.722 122.282V604.2C198.722 610.9 204.153 616.332 210.852 616.332H789.357C796.056 616.332 801.487 610.9 801.487 604.2V122.282C801.487 115.582 796.056 110.151 789.357 110.151Z" fill="#FDF1DE"/>
<path d="M198.722 171.046H801.487" stroke="#FEFEF4" stroke-width="1.94" stroke-miterlimit="10"/>
<path d="M789.357 110.151H210.852C204.153 110.151 198.722 115.582 198.722 122.282V604.2C198.722 610.9 204.153 616.332 210.852 616.332H789.357C796.056 616.332 801.487 610.9 801.487 604.2V122.282C801.487 115.582 796.056 110.151 789.357 110.151Z" stroke="#FEFEF4" stroke-width="1.94" stroke-miterlimit="10"/>
<path d="M249.683 149.718C254.377 149.718 258.183 145.912 258.183 141.218C258.183 136.523 254.377 132.717 249.683 132.717C244.989 132.717 241.184 136.523 241.184 141.218C241.184 145.912 244.989 149.718 249.683 149.718Z" stroke="#FEFEF4" stroke-width="1.94" stroke-miterlimit="10"/>
<path d="M282.713 149.718C287.407 149.718 291.212 145.912 291.212 141.218C291.212 136.523 287.407 132.717 282.713 132.717C278.019 132.717 274.214 136.523 274.214 141.218C274.214 145.912 278.019 149.718 282.713 149.718Z" stroke="#FEFEF4" stroke-width="1.94" stroke-miterlimit="10"/>
<path d="M315.726 149.718C320.42 149.718 324.225 145.912 324.225 141.218C324.225 136.523 320.42 132.717 315.726 132.717C311.032 132.717 307.227 136.523 307.227 141.218C307.227 145.912 311.032 149.718 315.726 149.718Z" stroke="#FEFEF4" stroke-width="1.94" stroke-miterlimit="10"/>
<path d="M323.869 376.399H17.5582C7.86109 376.399 0 384.262 0 393.96V507.538C0 517.237 7.86109 525.099 17.5582 525.099H323.869C333.566 525.099 341.427 517.237 341.427 507.538V393.96C341.427 384.262 333.566 376.399 323.869 376.399Z" fill="#DEDCD9"/>
<path d="M41.4103 404.005C41.4103 405.283 41.0313 406.533 40.321 407.596C39.6108 408.659 38.6014 409.488 37.4203 409.977C36.2393 410.467 34.9397 410.595 33.6859 410.345C32.4321 410.096 31.2804 409.48 30.3765 408.576C29.4726 407.672 28.857 406.52 28.6076 405.266C28.3582 404.012 28.4862 402.712 28.9754 401.531C29.4646 400.35 30.293 399.34 31.356 398.63C32.4189 397.92 33.6685 397.54 34.9469 397.54C36.6611 397.54 38.3051 398.221 39.5172 399.434C40.7294 400.646 41.4103 402.29 41.4103 404.005V404.005Z" stroke="#FEFEF4" stroke-width="1.48" stroke-miterlimit="10"/>
<path d="M60.0713 410.469C63.6409 410.469 66.5347 407.575 66.5347 404.005C66.5347 400.435 63.6409 397.54 60.0713 397.54C56.5016 397.54 53.6078 400.435 53.6078 404.005C53.6078 407.575 56.5016 410.469 60.0713 410.469Z" stroke="#FEFEF4" stroke-width="1.48" stroke-miterlimit="10"/>
<path d="M85.1957 410.469C88.7653 410.469 91.6591 407.575 91.6591 404.005C91.6591 400.435 88.7653 397.54 85.1957 397.54C81.626 397.54 78.7322 400.435 78.7322 404.005C78.7322 407.575 81.626 410.469 85.1957 410.469Z" stroke="#FEFEF4" stroke-width="1.48" stroke-miterlimit="10"/>
<path d="M0 428.488H341.427" stroke="#FEFEF4" stroke-width="1.48" stroke-miterlimit="10"/>
<path d="M874.332 35.2578H736.92C725.452 35.2578 716.156 44.5558 716.156 56.0255V166.889C716.156 178.359 725.452 187.657 736.92 187.657H874.332C885.8 187.657 895.097 178.359 895.097 166.889V56.0255C895.097 44.5558 885.8 35.2578 874.332 35.2578Z" fill="#DEDCD9"/>
<path d="M794.345 128.781C788.227 128.784 782.245 126.972 777.157 123.575C772.068 120.177 768.102 115.347 765.759 109.694C763.416 104.042 762.802 97.821 763.995 91.8194C765.188 85.8178 768.134 80.3048 772.46 75.978C776.786 71.6512 782.298 68.7049 788.299 67.512C794.299 66.319 800.519 66.933 806.171 69.2762C811.822 71.6194 816.652 75.5866 820.049 80.6758C823.446 85.765 825.257 91.7475 825.254 97.8666C825.245 106.063 821.986 113.921 816.191 119.716C810.396 125.512 802.54 128.772 794.345 128.781V128.781ZM794.345 73.9429C789.613 73.9395 784.987 75.3398 781.051 77.9665C777.115 80.5932 774.047 84.3284 772.234 88.6996C770.421 93.0708 769.944 97.8816 770.866 102.523C771.787 107.165 774.063 111.43 777.408 114.777C780.753 118.125 785.015 120.405 789.655 121.329C794.296 122.254 799.106 121.781 803.478 119.971C807.849 118.161 811.586 115.094 814.215 111.16C816.844 107.225 818.248 102.599 818.248 97.8666C818.243 91.5259 815.724 85.446 811.243 80.9609C806.762 76.4758 800.684 73.9519 794.345 73.9429V73.9429Z" fill="#FEFEF4"/>
<path d="M816.166 114.813L811.212 119.768L820.34 128.898L825.295 123.943L816.166 114.813Z" fill="#FEFEF4"/>
<path d="M819.032 133.59L837.098 151.659C839.013 153.574 842.117 153.574 844.031 151.659L848.05 147.639C849.965 145.724 849.965 142.62 848.05 140.705L829.984 122.636C828.07 120.721 824.966 120.721 823.051 122.636L819.032 126.656C817.118 128.571 817.118 131.675 819.032 133.59Z" fill="#FEFEF4"/>
<path d="M146.285 24.9247H67.2981C54.0594 24.9247 43.3273 35.6585 43.3273 48.8993V115.886C43.3273 129.126 54.0594 139.86 67.2981 139.86H146.285C159.523 139.86 170.256 129.126 170.256 115.886V48.8993C170.256 35.6585 159.523 24.9247 146.285 24.9247Z" fill="#FF9900"/>
<path d="M106.876 107.165C101.555 107.181 96.3476 105.618 91.9146 102.674C87.4817 99.7288 84.0221 95.5345 81.9739 90.622C79.9258 85.7095 79.3812 80.2995 80.4091 75.0772C81.437 69.8549 83.9912 65.0552 87.7482 61.2856C91.5053 57.5161 96.2962 54.9463 101.514 53.9018C106.733 52.8572 112.143 53.3848 117.062 55.4178C121.98 57.4507 126.184 60.8976 129.143 65.3219C132.101 69.7462 133.68 74.9491 133.68 80.2716C133.671 87.3866 130.847 94.209 125.825 99.248C120.802 104.287 113.99 107.133 106.876 107.165V107.165ZM106.876 61.455C103.149 61.4248 99.4966 62.5026 96.3827 64.5517C93.2688 66.6008 90.8337 69.5289 89.3863 72.9644C87.9389 76.3999 87.5444 80.188 88.253 83.848C88.9616 87.5081 90.7413 90.8751 93.3662 93.522C95.9912 96.1688 99.3431 97.9762 102.997 98.7147C106.65 99.4532 110.441 99.0896 113.888 97.67C117.334 96.2504 120.282 93.8388 122.356 90.7412C124.43 87.6436 125.537 83.9996 125.537 80.2716C125.528 75.3102 123.564 70.5522 120.071 67.0297C116.578 63.5072 111.837 61.5041 106.876 61.455V61.455Z" fill="#FEFEF4"/>
<path d="M122.636 61.455L91.8118 99.0882" stroke="#FEFEF4" stroke-width="4.52" stroke-miterlimit="10"/>
<path d="M990.844 286.439H704.772C692.546 286.439 682.634 296.353 682.634 308.582V522.079C682.634 534.308 692.546 544.221 704.772 544.221H990.844C1003.07 544.221 1012.98 534.308 1012.98 522.079V308.582C1012.98 296.353 1003.07 286.439 990.844 286.439Z" fill="#FF9900"/>
<path d="M697.819 472.546H747.463V495H777.707V472.546H791.149V448.717H777.707V387.311H748.074L697.819 447.036V472.546ZM747.463 416.028V448.717H721.801L747.463 416.028ZM846.902 473.462C834.834 473.462 831.932 460.784 831.932 441.996C831.932 431.761 832.238 409.613 846.596 409.613C860.649 409.613 861.718 430.387 861.718 441.69C861.718 459.715 858.205 473.462 846.902 473.462ZM800.16 440.163C800.16 471.018 812.075 497.291 846.902 497.291C881.729 497.291 893.49 470.713 893.49 440.01C893.49 404.266 874.855 385.784 846.902 385.784C822.309 385.784 800.16 400.6 800.16 440.163ZM901.585 472.546H951.229V495H981.473V472.546H994.915V448.717H981.473V387.311H951.84L901.585 447.036V472.546ZM951.229 416.028V448.717H925.567L951.229 416.028Z" fill="#FEFEF4"/>
<path d="M20.4535 449.906V506H67.276V492.912H38.8397V484.108H61.9783V471.019H38.8397V462.995H66.1853V449.906H20.4535ZM94.6076 462.995H103.177C107.462 462.995 110.579 464.865 110.579 468.838C110.579 472.733 107.54 474.136 101.853 474.136H94.6076V462.995ZM94.6076 486.445H100.217C108.787 486.445 110.033 488.86 110.033 496.184C110.033 501.17 110.501 504.753 110.968 506H129.588V504.286C128.108 504.286 127.64 502.728 127.64 494.47C127.64 483.173 124.057 481.771 118.136 479.589C124.68 477.797 127.64 472.344 127.64 465.878C127.64 454.97 121.408 449.906 102.71 449.906H76.2214V506H94.6076V486.445ZM155.929 462.995H164.499C168.784 462.995 171.901 464.865 171.901 468.838C171.901 472.733 168.862 474.136 163.175 474.136H155.929V462.995ZM155.929 486.445H161.539C170.109 486.445 171.355 488.86 171.355 496.184C171.355 501.17 171.823 504.753 172.29 506H190.91V504.286C189.43 504.286 188.962 502.728 188.962 494.47C188.962 483.173 185.379 481.771 179.458 479.589C186.002 477.797 188.962 472.344 188.962 465.878C188.962 454.97 182.73 449.906 164.032 449.906H137.543V506H155.929V486.445ZM225.665 462.138C233.846 462.138 236.884 470.007 236.884 477.642C236.884 486.913 233.768 493.768 225.821 493.768C217.018 493.768 214.836 484.809 214.836 477.642C214.836 470.552 217.329 462.138 225.665 462.138ZM225.821 448.426C208.37 448.426 196.45 459.879 196.45 477.486C196.45 496.573 208.214 507.48 225.821 507.48C242.415 507.48 255.27 496.729 255.27 477.642C255.27 462.839 245.843 448.426 225.821 448.426ZM282.149 462.995H290.719C295.004 462.995 298.12 464.865 298.12 468.838C298.12 472.733 295.082 474.136 289.394 474.136H282.149V462.995ZM282.149 486.445H287.758C296.328 486.445 297.575 488.86 297.575 496.184C297.575 501.17 298.042 504.753 298.51 506H317.13V504.286C315.649 504.286 315.182 502.728 315.182 494.47C315.182 483.173 311.598 481.771 305.677 479.589C312.221 477.797 315.182 472.344 315.182 465.878C315.182 454.97 308.949 449.906 290.251 449.906H263.763V506H282.149V486.445Z" fill="#48464C"/>
<path d="M716.834 317.048C720.291 317.048 723.094 314.245 723.094 310.787C723.094 307.33 720.291 304.526 716.834 304.526C713.377 304.526 710.574 307.33 710.574 310.787C710.574 314.245 713.377 317.048 716.834 317.048Z" stroke="#FEFEF4" stroke-width="1.43" stroke-miterlimit="10"/>
<path d="M741.161 317.048C744.618 317.048 747.421 314.245 747.421 310.787C747.421 307.33 744.618 304.526 741.161 304.526C737.704 304.526 734.901 307.33 734.901 310.787C734.901 314.245 737.704 317.048 741.161 317.048Z" stroke="#FEFEF4" stroke-width="1.43" stroke-miterlimit="10"/>
<path d="M765.505 317.048C768.962 317.048 771.765 314.245 771.765 310.787C771.765 307.33 768.962 304.526 765.505 304.526C762.048 304.526 759.245 307.33 759.245 310.787C759.245 314.245 762.048 317.048 765.505 317.048Z" stroke="#FEFEF4" stroke-width="1.43" stroke-miterlimit="10"/>
<path d="M682.634 336.9H1013" stroke="#FEFEF4" stroke-width="1.43" stroke-miterlimit="10"/>
<path d="M531.599 436.327L530.344 419.36L424.248 424.586V441.01C424.248 441.01 400.362 463.661 390.963 614.754H581.882C581.882 614.754 602.901 481.036 531.599 436.327Z" fill="#FF9900"/>
<path d="M424.248 440.959L531.599 436.327" stroke="black" stroke-width="1.55" stroke-miterlimit="10"/>
<path d="M446.183 510.609L468.169 519.568L479.942 614.737" stroke="black" stroke-width="1.55" stroke-miterlimit="10"/>
<path d="M308.245 403.428L337.559 306.715L402.058 330.859L371.098 423.5C368.312 431.681 362.428 438.443 354.711 442.332C346.994 446.22 338.06 446.926 329.828 444.297C321.596 441.669 314.724 435.915 310.688 428.273C306.652 420.631 305.775 411.71 308.245 403.428V403.428Z" fill="#F59081"/>
<path d="M353.455 254.965C354.787 250.512 356.993 246.369 359.945 242.778C362.896 239.188 366.533 236.221 370.643 234.052C374.754 231.883 379.255 230.554 383.885 230.145C388.514 229.735 393.179 230.252 397.606 231.666C402.033 233.08 406.135 235.361 409.67 238.378C413.206 241.395 416.105 245.086 418.199 249.236C420.292 253.386 421.538 257.912 421.863 262.549C422.188 267.186 421.585 271.841 420.091 276.242L402.058 330.859L337.593 306.681L353.455 254.965Z" fill="#FEFEF4"/>
<path d="M357.951 396.166L284.308 256.509C284.308 256.509 286.004 231.279 244.085 229.769C243.508 229.769 242.931 229.769 242.389 229.769H228.376C227.107 229.747 225.873 230.179 224.896 230.989C223.919 231.798 223.264 232.93 223.049 234.181C222.949 234.863 222.986 235.559 223.157 236.228C223.329 236.896 223.632 237.523 224.049 238.073C224.466 238.623 224.989 239.084 225.586 239.429C226.183 239.775 226.843 239.998 227.528 240.085L241.659 242.07L222.438 247.16L218.842 248.484L192.666 231.177C191.766 230.502 190.635 230.213 189.521 230.372C188.408 230.531 187.403 231.126 186.728 232.026C186.053 232.926 185.763 234.057 185.922 235.171C186.082 236.284 186.676 237.289 187.576 237.964C189.273 239.305 191.783 241.544 194.617 243.988L188.849 240.594C187.906 239.98 186.758 239.765 185.657 239.998C184.556 240.23 183.593 240.89 182.979 241.833C182.365 242.776 182.15 243.924 182.382 245.025C182.615 246.126 183.275 247.089 184.217 247.703L189.307 251.334L187.288 250.554C186.224 250.095 185.036 250.014 183.919 250.322C182.802 250.631 181.824 251.311 181.147 252.251C180.719 252.862 180.434 253.561 180.313 254.297C180.191 255.033 180.236 255.787 180.444 256.504C180.653 257.22 181.019 257.88 181.516 258.436C182.014 258.992 182.629 259.43 183.318 259.716L212.056 271.559C216.993 273.629 221.709 274.953 227.511 273.544L252.957 267.538L310.009 427.25L357.951 396.166Z" fill="#F59081"/>
<path d="M327.805 338.851L341.427 364.692" stroke="#F77F72" stroke-width="1.5" stroke-miterlimit="10"/>
<path d="M410.778 230.601L383.397 232.654C383.397 232.654 343.751 286.423 424.231 424.535L530.327 419.309L538.317 270.524L525.22 228.276H477.72L410.778 230.601Z" fill="#FEFEF4"/>
<path d="M379.716 322.461C379.716 322.461 371.828 305.85 376.9 269.048" stroke="#FCE7E4" stroke-width="1.55" stroke-miterlimit="10"/>
<path d="M625.989 384.001L581.882 292.989L521.98 326.923L567.004 413.625C570.932 421.448 577.806 427.391 586.114 430.145C594.423 432.899 603.485 432.239 611.307 428.31C619.129 424.382 625.07 417.507 627.823 409.197C630.577 400.887 629.917 391.824 625.989 384.001V384.001Z" fill="#F59081"/>
<path d="M558.131 244.412C556.097 240.258 553.259 236.548 549.782 233.498C546.305 230.448 542.258 228.118 537.875 226.642C533.491 225.167 528.859 224.575 524.246 224.902C519.632 225.228 515.13 226.467 510.998 228.545C506.866 230.624 503.187 233.501 500.175 237.011C497.162 240.521 494.875 244.593 493.447 248.992C492.018 253.392 491.475 258.031 491.851 262.641C492.226 267.252 493.512 271.742 495.634 275.852L522.014 326.94L581.916 293.006L558.131 244.412Z" fill="#FEFEF4"/>
<path d="M522.048 326.94L500.266 284.76" stroke="#FCE7E4" stroke-width="1.55" stroke-miterlimit="10"/>
<path d="M718.005 228.293C717.314 227.364 716.333 226.693 715.217 226.385C714.102 226.078 712.915 226.152 711.847 226.596L699.055 231.686L711.066 221.506C712.057 220.71 712.714 219.573 712.909 218.317C713.104 217.061 712.821 215.778 712.118 214.719C711.719 214.165 711.212 213.697 710.628 213.342C710.044 212.988 709.395 212.754 708.719 212.656C708.043 212.558 707.354 212.597 706.694 212.771C706.033 212.944 705.414 213.249 704.874 213.667L693.695 222.677L703.229 210.206C704.007 209.222 704.394 207.984 704.316 206.731C704.238 205.479 703.699 204.299 702.804 203.419C702.296 202.964 701.701 202.616 701.055 202.396C700.41 202.175 699.726 202.087 699.046 202.136C698.365 202.185 697.701 202.371 697.094 202.682C696.487 202.992 695.948 203.422 695.51 203.945L676.679 223.491L657.458 218.401L671.59 216.399C672.28 216.325 672.948 216.111 673.552 215.77C674.156 215.429 674.685 214.967 675.104 214.414C675.523 213.861 675.825 213.228 675.991 212.554C676.157 211.88 676.183 211.179 676.068 210.494C675.857 209.242 675.203 208.108 674.225 207.298C673.247 206.488 672.011 206.057 670.742 206.083H656.746C648.477 206.016 640.474 209 634.268 214.465L633.963 214.685C625.362 221.472 628.483 235.368 628.483 235.368L575.707 384.798L628.025 408.009L658.222 247.33H677.476C678.673 247.432 679.876 247.432 681.073 247.33H681.209C683.297 247.145 685.346 246.642 687.282 245.837L715.884 235.657C716.553 235.362 717.149 234.924 717.63 234.374C718.112 233.824 718.466 233.174 718.668 232.471C718.87 231.769 718.916 231.03 718.801 230.308C718.687 229.586 718.415 228.898 718.005 228.293V228.293Z" fill="#F59081"/>
<path d="M596.217 322.461L584.817 362.249" stroke="#F77F72" stroke-width="1.5" stroke-miterlimit="10"/>
<path d="M408.657 107.334C405.366 109.591 383.211 115.343 382.804 119.347C382.804 119.347 390.081 147.801 382.617 153.112C362.463 167.466 356.017 195.614 356.017 195.614C356.017 195.614 409.183 235.436 550.497 193.629C550.497 193.629 552.194 176.662 526.493 164.412C519.016 161.032 512.745 155.457 508.51 148.429C506.062 144.514 504.515 140.103 503.981 135.517C501.623 121.553 463.13 69.9555 408.657 107.334Z" fill="black"/>
<path d="M410.744 149.973C410.981 153.322 410.22 156.666 408.556 159.582C406.892 162.497 404.4 164.854 401.397 166.353C398.393 167.852 395.012 168.426 391.682 168.003C388.352 167.58 385.223 166.178 382.69 163.975C380.157 161.772 378.334 158.866 377.453 155.627C376.571 152.387 376.671 148.959 377.738 145.776C378.805 142.593 380.793 139.798 383.449 137.745C386.105 135.693 389.311 134.474 392.66 134.244C397.142 133.936 401.564 135.419 404.954 138.368C408.344 141.317 410.427 145.49 410.744 149.973Z" fill="#F77F72"/>
<path d="M418.395 191.491L420.719 228.361C421.516 241.307 426.792 250.13 439.533 249.231C450.407 248.484 463.283 239.763 463.945 228.87L457.464 171.029L418.395 191.491Z" fill="#F59081"/>
<path d="M410.778 230.601L477.703 228.276C477.703 228.276 476.006 261.175 436.309 258.104C408.657 255.95 410.778 230.601 410.778 230.601Z" fill="#F59081"/>
<path d="M420.329 221.862L463.096 180.038L418.09 187.725L420.329 221.862Z" fill="#F77F72"/>
<path d="M429.625 197.447C407.843 197.447 389.861 180.361 389.216 162.579L387.927 120.619C387.535 109.897 391.327 99.4422 398.5 91.4637C405.673 83.4853 415.666 78.608 426.368 77.8623V77.8623C449.152 76.2673 472.885 93.1327 474.463 115.954L475.124 149.718C475.65 175.831 455.666 195.631 429.625 197.447Z" fill="#F59081"/>
<path d="M412.05 147.801L410.795 158.236L416.173 158.422" stroke="black" stroke-width="1.24" stroke-linecap="round" stroke-linejoin="round"/>
<path d="M433.561 122.367C433.561 122.367 421.533 121.383 421.415 126.287C421.415 126.287 421.415 129.595 431.916 130.257C442.417 130.919 445.131 130.138 446.098 127.033C447.065 123.928 439.193 122.401 433.561 122.367Z" fill="black"/>
<path d="M398.665 129.527C398.665 129.527 407.775 128.798 408.64 133.192C408.64 133.192 409.149 136.178 401.159 136.586C393.169 136.993 390.709 136.043 390.556 133.531C390.404 130.647 394.339 129.476 398.665 129.527Z" fill="black"/>
<path d="M403.975 143.831C404.002 144.592 403.802 145.343 403.401 145.991C403 146.639 402.416 147.153 401.724 147.469C401.031 147.784 400.26 147.888 399.508 147.765C398.757 147.643 398.058 147.301 397.501 146.781C396.944 146.262 396.553 145.59 396.379 144.848C396.204 144.107 396.252 143.331 396.519 142.617C396.785 141.904 397.257 141.285 397.874 140.84C398.492 140.394 399.228 140.142 399.989 140.115C400.494 140.097 400.999 140.178 401.473 140.355C401.947 140.532 402.382 140.801 402.752 141.146C403.122 141.491 403.421 141.906 403.631 142.367C403.841 142.827 403.958 143.325 403.975 143.831Z" fill="black"/>
<path d="M436.292 142.779C436.316 143.54 436.113 144.291 435.709 144.937C435.305 145.583 434.719 146.094 434.025 146.407C433.331 146.72 432.559 146.82 431.808 146.694C431.057 146.569 430.36 146.223 429.806 145.702C429.251 145.18 428.863 144.505 428.691 143.763C428.52 143.021 428.572 142.245 428.841 141.533C429.111 140.82 429.585 140.204 430.205 139.761C430.825 139.319 431.562 139.07 432.323 139.046C432.829 139.028 433.334 139.11 433.808 139.288C434.283 139.467 434.717 139.737 435.086 140.084C435.455 140.431 435.752 140.848 435.959 141.311C436.166 141.773 436.279 142.272 436.292 142.779Z" fill="black"/>
<path d="M425.045 165.667C425.045 165.667 419.345 163.071 412.474 169.061" stroke="black" stroke-width="1.24" stroke-linecap="round" stroke-linejoin="round"/>
<path d="M439.838 70.6512C434.399 70.3653 428.949 70.9379 423.688 72.3479C410.642 75.7414 387.231 85.4805 383.211 110.541C381.87 117.141 382.803 119.347 382.803 119.347C382.803 119.347 426.538 121.044 452.358 108.861C456.073 124.624 459.517 134.312 475.073 149.718L488.95 128.95L504.507 142.897C504.608 143.423 504.591 74.0786 439.838 70.6512Z" fill="black"/>
<path d="M497.823 150.142C498.06 153.491 497.298 156.835 495.634 159.751C493.97 162.667 491.479 165.024 488.475 166.523C485.472 168.022 482.091 168.596 478.761 168.173C475.431 167.749 472.302 166.347 469.768 164.144C467.235 161.941 465.413 159.036 464.531 155.797C463.65 152.557 463.749 149.129 464.817 145.946C465.884 142.763 467.872 139.968 470.528 137.915C473.184 135.862 476.39 134.644 479.738 134.414C484.221 134.106 488.642 135.589 492.033 138.538C495.423 141.487 497.505 145.66 497.823 150.142V150.142Z" fill="#F59081"/>
<path d="M474.446 156.098C474.446 156.098 473.597 143.831 485.456 144.95" stroke="black" stroke-width="1.24" stroke-linecap="round" stroke-linejoin="round"/>
</g>
<defs>
<clipPath id="clip0_143_315">
<rect width="1013" height="687" fill="white"/>
</clipPath>
</defs>
</svg>
