<svg width="812" height="300" viewBox="0 0 812 300" fill="none" xmlns="http://www.w3.org/2000/svg">
<path d="M150.86 199.509C150.614 199.509 150.369 199.509 149.877 199.509C135.381 199.509 121.622 196.315 109.091 190.663C90.172 182.064 74.2015 167.813 63.8821 149.877C55.2826 135.135 50.3686 117.936 50.3686 99.7543C50.3686 85.258 53.5627 71.4988 59.2138 58.9681C73.9558 25.5528 106.388 1.9656 144.963 0C65.8477 2.7027 2.457 66.3391 0 145.209C0 146.683 0 148.157 0 149.877C0 151.351 0 153.071 0 154.545C1.9656 193.12 25.5528 226.044 58.9681 241.032C71.4988 246.683 85.258 249.877 99.7543 249.877C118.182 249.877 135.135 244.963 149.877 236.364C167.813 225.799 182.064 210.074 190.663 190.909C196.315 178.624 199.263 164.865 199.509 150.369C199.263 177.15 177.641 199.017 150.86 199.509Z" fill="#FF9900"/>
<path d="M155.037 0.2457C153.317 0 151.597 0 149.877 0C148.157 0 146.438 0 144.718 0.2457C106.388 1.9656 73.956 25.5528 58.9683 58.9681C53.3172 71.4988 50.123 85.258 50.123 99.7543C50.123 118.182 55.0371 135.135 63.6366 149.877C74.2017 167.813 89.9265 182.064 109.091 190.663C121.376 196.069 134.644 199.263 148.895 199.263C122.605 199.017 101.474 178.133 100.492 151.843C100.492 151.351 100.492 150.614 100.492 149.877C100.492 135.381 103.686 121.622 109.337 109.091C117.691 90.172 131.941 74.2015 149.877 63.8821C164.619 55.2826 181.818 50.3685 200 50.3685C214.497 50.3685 228.256 53.5627 240.786 59.2138C273.956 73.9558 297.298 106.388 299.509 144.472C296.806 65.8477 233.661 2.7027 155.037 0.2457Z" fill="#48464C"/>
<path d="M236.118 149.877C225.553 131.941 209.828 117.69 190.663 109.091C178.378 103.686 164.865 100.491 150.86 100.491C177.641 100.983 199.263 122.85 199.509 149.877V150.123C199.509 164.619 196.314 178.378 190.663 190.909C182.064 210.074 167.813 225.799 149.877 236.364C135.135 244.963 117.936 249.877 99.7543 249.877C85.258 249.877 71.4988 246.683 58.9681 241.032C25.5528 226.044 1.7199 193.12 0 154.546C2.457 233.415 65.8477 297.052 144.717 299.754C146.437 299.754 148.157 300 149.877 300C151.597 300 153.317 300 155.037 299.754C193.366 297.789 226.044 274.202 240.786 241.032C246.437 228.501 249.631 214.742 249.631 200.246C249.631 181.818 244.717 164.619 236.118 149.877Z" fill="#48464C"/>
<path d="M299.754 144.226C297.543 106.142 274.201 73.71 241.032 58.968C228.501 53.3169 214.742 50.1228 200.246 50.1228C181.818 50.1228 164.619 55.2825 149.877 63.882C131.941 74.4471 117.69 90.1719 109.091 109.337C103.685 121.376 100.737 134.398 100.491 148.157C101.474 122.113 122.604 100.983 148.894 100.491C149.14 100.491 149.631 100.491 149.877 100.491C164.373 100.491 178.132 103.685 190.663 109.337C209.828 117.936 225.553 132.187 236.118 150.123C244.717 164.865 249.631 182.064 249.631 200.246C249.631 214.742 246.437 228.501 240.786 241.032C226.044 274.201 193.366 297.789 155.037 299.754C233.661 297.052 296.806 234.152 299.754 155.528C299.754 153.563 300 151.843 300 149.877C300 148.157 299.754 146.192 299.754 144.226Z" fill="#FF9900"/>
<path d="M571.855 158C570.969 158 570.272 157.873 569.766 157.62C569.259 157.367 568.899 156.987 568.683 156.481C568.481 155.974 568.38 155.348 568.38 154.601V150.214C568.38 149.48 568.481 148.866 568.683 148.372C568.886 147.866 569.24 147.486 569.747 147.233C570.253 146.967 570.956 146.834 571.855 146.834H576.241C577.128 146.834 577.818 146.967 578.311 147.233C578.818 147.486 579.172 147.866 579.375 148.372C579.59 148.866 579.698 149.48 579.698 150.214V154.601C579.698 155.715 579.451 156.563 578.957 157.145C578.463 157.715 577.558 158 576.241 158H571.855ZM572.405 156.177H575.71C576.178 156.177 576.539 156.057 576.792 155.816C577.058 155.576 577.191 155.246 577.191 154.829V149.986C577.191 149.619 577.058 149.309 576.792 149.056C576.526 148.79 576.165 148.657 575.71 148.657H572.405C571.95 148.657 571.583 148.777 571.304 149.018C571.026 149.258 570.886 149.581 570.886 149.986V154.829C570.886 155.259 571.019 155.595 571.285 155.835C571.564 156.063 571.937 156.177 572.405 156.177Z" fill="#48464C"/>
<path d="M373.733 192.5C366.898 192.5 360.632 192.358 354.936 192.073C349.335 191.693 344.826 191.076 341.408 190.222C338.085 189.367 336.424 188.181 336.424 186.662L343.544 175.697C346.297 176.931 350.094 177.785 354.936 178.26C359.873 178.64 366.375 178.83 374.445 178.83H388.115C392.577 178.83 395.52 177.785 396.944 175.697C398.368 173.513 399.08 171.187 399.08 168.719V120.161L397.941 108.769H417.877V167.01C417.877 171.757 417.26 176.077 416.026 179.969C414.886 183.861 412.466 186.946 408.763 189.225C405.156 191.408 399.602 192.5 392.102 192.5H373.733ZM455.201 192.5C448.841 192.5 444.094 191.218 440.961 188.655C437.923 186.092 436.404 181.915 436.404 176.124V146.932C436.404 145.508 436.499 143.799 436.689 141.806C436.974 139.717 437.639 137.676 438.683 135.682C439.822 133.689 441.673 132.027 444.236 130.698C446.895 129.369 450.549 128.705 455.201 128.705H494.504C499.25 128.705 502.905 129.369 505.468 130.698C508.032 132.027 509.835 133.689 510.88 135.682C512.019 137.676 512.683 139.717 512.873 141.806C513.158 143.799 513.3 145.508 513.3 146.932V174.273C513.3 175.982 513.158 177.88 512.873 179.969C512.683 182.057 512.019 184.051 510.88 185.95C509.74 187.848 507.889 189.415 505.326 190.649C502.763 191.883 499.155 192.5 494.504 192.5H455.201ZM460.612 180.254H489.092C493.744 180.254 496.07 178.355 496.07 174.558V146.647C496.07 142.85 493.744 140.951 489.092 140.951H460.612C456.056 140.951 453.777 142.85 453.777 146.647V174.558C453.777 178.355 456.056 180.254 460.612 180.254ZM557.822 192.5C551.176 192.5 545.955 191.551 542.158 189.652C538.36 187.753 535.655 184.905 534.041 181.108C532.522 177.311 531.762 172.611 531.762 167.01V134.116C531.762 128.61 532.522 124.006 534.041 120.303C535.56 116.506 538.218 113.658 542.015 111.759C545.812 109.766 551.081 108.769 557.822 108.769H590.716C597.361 108.769 602.535 109.766 606.238 111.759C610.035 113.658 612.693 116.506 614.212 120.303C615.826 124.006 616.633 128.61 616.633 134.116V167.01C616.633 175.365 614.782 181.725 611.079 186.092C607.377 190.364 600.589 192.5 590.716 192.5H557.822ZM561.951 178.83H586.729C590.241 178.83 592.947 177.928 594.846 176.124C596.839 174.32 597.836 171.852 597.836 168.719V132.407C597.836 129.654 596.839 127.328 594.846 125.43C592.852 123.436 590.146 122.439 586.729 122.439H561.951C558.534 122.439 555.78 123.341 553.692 125.145C551.603 126.949 550.559 129.369 550.559 132.407V168.719C550.559 171.947 551.556 174.463 553.55 176.266C555.638 177.975 558.439 178.83 561.951 178.83ZM653.922 192.5C647.561 192.5 642.814 191.218 639.682 188.655C636.644 186.092 635.125 181.915 635.125 176.124V146.932C635.125 145.508 635.22 143.799 635.41 141.806C635.694 139.717 636.359 137.676 637.403 135.682C638.542 133.689 640.394 132.027 642.957 130.698C645.615 129.369 649.27 128.705 653.922 128.705H693.224C697.971 128.705 701.626 129.369 704.189 130.698C706.752 132.027 708.556 133.689 709.6 135.682C710.739 137.676 711.404 139.717 711.594 141.806C711.878 143.799 712.021 145.508 712.021 146.932V174.273C712.021 175.982 711.878 177.88 711.594 179.969C711.404 182.057 710.739 184.051 709.6 185.95C708.461 187.848 706.61 189.415 704.046 190.649C701.483 191.883 697.876 192.5 693.224 192.5H653.922ZM659.333 180.254H687.813C692.464 180.254 694.79 178.355 694.79 174.558V146.647C694.79 142.85 692.464 140.951 687.813 140.951H659.333C654.776 140.951 652.498 142.85 652.498 146.647V174.558C652.498 178.355 654.776 180.254 659.333 180.254ZM727.635 192.5V102.218H745.007V130.414C749.09 129.939 753.884 129.559 759.39 129.274C764.991 128.895 771.351 128.705 778.471 128.705H785.734C790.481 128.705 794.135 129.322 796.699 130.556C799.262 131.79 801.066 133.357 802.11 135.255C803.249 137.154 803.914 139.147 804.103 141.236C804.388 143.325 804.531 145.223 804.531 146.932V174.273C804.531 175.697 804.388 177.453 804.103 179.542C803.914 181.535 803.249 183.529 802.11 185.522C801.066 187.516 799.262 189.177 796.699 190.506C794.135 191.835 790.481 192.5 785.734 192.5H778.471C770.592 192.5 763.709 192.31 757.823 191.93C751.938 191.456 747.049 190.981 743.156 190.506L739.311 192.5H727.635ZM749.422 180.254H780.323C784.879 180.254 787.158 178.355 787.158 174.558V146.647C787.253 144.559 786.826 143.087 785.876 142.233C784.927 141.378 783.076 140.951 780.323 140.951H773.203C767.127 140.951 761.716 141.094 756.969 141.378C752.317 141.568 748.33 141.806 745.007 142.09V175.839C745.007 177.833 745.197 179.067 745.577 179.542C746.052 180.016 747.333 180.254 749.422 180.254Z" fill="#48464C"/>
</svg>
