<svg width="300" height="300" viewBox="0 0 300 300" fill="none" xmlns="http://www.w3.org/2000/svg">
<path d="M150.86 199.509C150.614 199.509 150.369 199.509 149.877 199.509C135.381 199.509 121.622 196.315 109.091 190.663C90.172 182.064 74.2015 167.813 63.8821 149.877C55.2826 135.135 50.3686 117.936 50.3686 99.7543C50.3686 85.258 53.5627 71.4988 59.2138 58.9681C73.9558 25.5528 106.388 1.9656 144.963 0C65.8477 2.7027 2.457 66.3391 0 145.209C0 146.683 0 148.157 0 149.877C0 151.351 0 153.071 0 154.545C1.9656 193.12 25.5528 226.044 58.9681 241.032C71.4988 246.683 85.258 249.877 99.7543 249.877C118.182 249.877 135.135 244.963 149.877 236.364C167.813 225.799 182.064 210.074 190.663 190.909C196.315 178.624 199.263 164.865 199.509 150.369C199.263 177.15 177.641 199.017 150.86 199.509Z" fill="#FF9900"/>
<path d="M155.037 0.2457C153.317 0 151.597 0 149.877 0C148.157 0 146.438 0 144.718 0.2457C106.388 1.9656 73.956 25.5528 58.9683 58.9681C53.3172 71.4988 50.123 85.258 50.123 99.7543C50.123 118.182 55.0371 135.135 63.6366 149.877C74.2017 167.813 89.9265 182.064 109.091 190.663C121.376 196.069 134.644 199.263 148.895 199.263C122.605 199.017 101.474 178.133 100.492 151.843C100.492 151.351 100.492 150.614 100.492 149.877C100.492 135.381 103.686 121.622 109.337 109.091C117.691 90.172 131.941 74.2015 149.877 63.8821C164.619 55.2826 181.818 50.3685 200 50.3685C214.497 50.3685 228.256 53.5627 240.786 59.2138C273.956 73.9558 297.298 106.388 299.509 144.472C296.806 65.8477 233.661 2.7027 155.037 0.2457Z" fill="#48464C"/>
<path d="M236.118 149.877C225.553 131.941 209.828 117.69 190.663 109.091C178.378 103.686 164.865 100.491 150.86 100.491C177.641 100.983 199.263 122.85 199.509 149.877V150.123C199.509 164.619 196.314 178.378 190.663 190.909C182.064 210.074 167.813 225.799 149.877 236.364C135.135 244.963 117.936 249.877 99.7543 249.877C85.258 249.877 71.4988 246.683 58.9681 241.032C25.5528 226.044 1.7199 193.12 0 154.546C2.457 233.415 65.8477 297.052 144.717 299.754C146.437 299.754 148.157 300 149.877 300C151.597 300 153.317 300 155.037 299.754C193.366 297.789 226.044 274.202 240.786 241.032C246.437 228.501 249.631 214.742 249.631 200.246C249.631 181.818 244.717 164.619 236.118 149.877Z" fill="#48464C"/>
<path d="M299.754 144.226C297.543 106.142 274.201 73.71 241.032 58.968C228.501 53.3169 214.742 50.1228 200.246 50.1228C181.818 50.1228 164.619 55.2825 149.877 63.882C131.941 74.4471 117.69 90.1719 109.091 109.337C103.685 121.376 100.737 134.398 100.491 148.157C101.474 122.113 122.604 100.983 148.894 100.491C149.14 100.491 149.631 100.491 149.877 100.491C164.373 100.491 178.132 103.685 190.663 109.337C209.828 117.936 225.553 132.187 236.118 150.123C244.717 164.865 249.631 182.064 249.631 200.246C249.631 214.742 246.437 228.501 240.786 241.032C226.044 274.201 193.366 297.789 155.037 299.754C233.661 297.052 296.806 234.152 299.754 155.528C299.754 153.563 300 151.843 300 149.877C300 148.157 299.754 146.192 299.754 144.226Z" fill="#FF9900"/>
</svg>
